<svg xmlns="http://www.w3.org/2000/svg" xmlns:xlink="http://www.w3.org/1999/xlink" width="1366" zoomAndPan="magnify" viewBox="0 0 1024.5 576" height="768" preserveAspectRatio="xMidYMid meet" version="1.0"><defs><clipPath id="ecd8efcd90"><path d="M 268.066406 44.066406 L 756 44.066406 L 756 532 L 268.066406 532 Z M 268.066406 44.066406 " clip-rule="nonzero"/></clipPath></defs><g clip-path="url(#ecd8efcd90)"><path fill="#2e266d" d="M 755.925781 457.738281 C 755.925781 498.683594 722.742188 531.871094 681.800781 531.871094 L 342.21875 531.871094 C 301.277344 531.871094 268.085938 498.683594 268.085938 457.738281 L 268.085938 118.160156 C 268.085938 77.21875 301.277344 44.027344 342.21875 44.027344 L 681.800781 44.027344 C 722.738281 44.027344 755.925781 77.21875 755.925781 118.160156 Z M 755.925781 457.738281 " fill-opacity="1" fill-rule="nonzero"/></g><path fill="#ffffff" d="M 591.332031 325.855469 L 599.222656 264.6875 L 538.648438 264.6875 L 538.648438 225.632812 C 538.648438 207.921875 543.589844 195.851562 568.976562 195.851562 L 601.34375 195.835938 L 601.34375 141.128906 C 595.753906 140.382812 576.542969 138.71875 554.15625 138.71875 C 507.449219 138.71875 475.496094 167.230469 475.496094 219.582031 L 475.496094 264.6875 L 422.671875 264.6875 L 422.671875 325.855469 L 475.496094 325.855469 L 475.496094 482.800781 L 538.648438 482.800781 L 538.648438 325.855469 Z M 591.332031 325.855469 " fill-opacity="1" fill-rule="nonzero"/></svg>