<svg xmlns="http://www.w3.org/2000/svg" xmlns:xlink="http://www.w3.org/1999/xlink" width="419" zoomAndPan="magnify" viewBox="0 0 314.25 217.499992" height="290" preserveAspectRatio="xMidYMid meet" version="1.0"><defs><g/><clipPath id="b6caf6c703"><path d="M 0.632812 86 L 121.84375 86 L 121.84375 123.390625 L 0.632812 123.390625 Z M 0.632812 86 " clip-rule="nonzero"/></clipPath><clipPath id="4f50bf95f4"><path d="M 191.582031 59.375 L 312.792969 59.375 L 312.792969 96.785156 L 191.582031 96.785156 Z M 191.582031 59.375 " clip-rule="nonzero"/></clipPath></defs><path fill="#845f0e" d="M 121.878906 169.246094 C 119.960938 168.878906 118.140625 168.507812 116.308594 168.207031 C 115.90625 168.136719 115.449219 168.273438 115.046875 168.398438 C 109.863281 170.023438 104.679688 170.058594 99.503906 168.394531 C 98.808594 168.171875 98.082031 167.910156 97.5 167.488281 C 97.101562 167.195312 96.699219 166.582031 96.726562 166.136719 C 96.75 165.761719 97.328125 165.222656 97.757812 165.105469 C 98.816406 164.820312 99.929688 164.628906 101.023438 164.589844 C 103.050781 164.511719 105.082031 164.570312 107.058594 164.570312 C 105.984375 163.707031 104.90625 162.761719 103.726562 161.957031 C 103.316406 161.679688 102.621094 161.871094 102.113281 161.6875 C 98.96875 160.546875 96.023438 159.03125 93.421875 156.902344 C 91.535156 155.355469 89.914062 153.585938 88.738281 151.425781 C 88.644531 151.25 88.539062 151.074219 88.464844 150.886719 C 88.164062 150.078125 87.644531 149.214844 88.421875 148.449219 C 89.226562 147.65625 90.082031 148.21875 90.820312 148.640625 C 94.140625 150.527344 97.035156 152.972656 99.777344 155.609375 C 100.011719 155.828125 100.253906 156.042969 100.546875 156.308594 C 100.832031 155.265625 100.503906 154.636719 99.777344 153.976562 C 84.875 140.335938 75.648438 123.546875 72.132812 103.660156 C 70.828125 96.292969 70.515625 88.867188 71.210938 81.394531 C 73.238281 59.625 82.015625 41.039062 97.640625 25.785156 C 109.941406 13.78125 124.636719 6.105469 141.519531 2.808594 C 146.109375 1.910156 150.8125 1.3125 155.484375 1.132812 C 168.015625 0.644531 180.175781 2.695312 191.773438 7.550781 C 214.644531 17.121094 230.804688 33.429688 240.246094 56.351562 C 243.367188 63.933594 245.328125 71.839844 246.015625 80.019531 C 248.46875 109.210938 238.960938 133.84375 217.671875 153.941406 C 216.753906 154.804688 216.746094 154.796875 216.902344 156.300781 C 217.191406 156.046875 217.417969 155.824219 217.664062 155.625 C 220.355469 153.460938 223.03125 151.285156 225.75 149.15625 C 226.265625 148.75 226.902344 148.429688 227.539062 148.265625 C 227.992188 148.148438 228.695312 148.179688 228.992188 148.460938 C 229.292969 148.742188 229.449219 149.492188 229.296875 149.894531 C 228.898438 150.949219 228.410156 152.007812 227.765625 152.925781 C 224.96875 156.910156 221.023438 159.398438 216.597656 161.195312 C 215.816406 161.507812 214.9375 161.582031 214.105469 161.777344 C 213.949219 161.8125 213.789062 161.878906 213.667969 161.976562 C 212.566406 162.84375 211.472656 163.714844 210.40625 164.566406 C 212.34375 164.566406 214.332031 164.519531 216.316406 164.585938 C 217.347656 164.617188 218.378906 164.800781 219.398438 164.992188 C 220.066406 165.121094 220.859375 165.40625 220.761719 166.203125 C 220.699219 166.71875 220.199219 167.453125 219.734375 167.605469 C 217.578125 168.3125 215.40625 169.050781 213.175781 169.40625 C 209.410156 170.007812 205.6875 169.5 202.066406 168.273438 C 201.765625 168.171875 201.402344 168.15625 201.085938 168.210938 C 199.285156 168.527344 197.488281 168.882812 195.628906 169.234375 C 195.835938 169.363281 196.035156 169.507812 196.253906 169.617188 C 198.902344 170.96875 201.363281 172.578125 203.5 174.660156 C 204.117188 175.265625 204.902344 175.949219 204.386719 176.90625 C 203.867188 177.878906 202.863281 177.566406 202.027344 177.371094 C 197.871094 176.382812 194.367188 174.191406 191.242188 171.359375 C 190.71875 170.882812 190.320312 170.742188 189.664062 171.035156 C 188.78125 171.429688 187.847656 171.714844 186.832031 172.082031 C 187.640625 172.796875 188.441406 173.386719 189.085938 174.121094 C 189.433594 174.519531 189.785156 175.273438 189.625 175.65625 C 189.46875 176.039062 188.679688 176.355469 188.160156 176.363281 C 185.769531 176.390625 183.492188 175.796875 181.398438 174.65625 C 180.503906 174.167969 179.691406 174.027344 178.738281 174.351562 C 178.082031 174.578125 177.386719 174.6875 176.5625 174.882812 C 178.027344 175.703125 179.335938 176.441406 180.644531 177.175781 C 180.792969 177.261719 180.933594 177.351562 181.066406 177.449219 C 181.652344 177.886719 182.421875 178.261719 182.117188 179.179688 C 181.828125 180.039062 181.019531 179.933594 180.320312 179.933594 C 175.871094 179.914062 171.675781 178.960938 167.820312 176.652344 C 167.425781 176.414062 166.875 176.320312 166.402344 176.339844 C 164.421875 176.425781 162.425781 176.433594 160.480469 176.746094 C 157.488281 177.21875 154.589844 176.347656 151.632812 176.363281 C 150.734375 176.367188 149.964844 176.40625 149.160156 176.878906 C 145.292969 179.164062 141.054688 180.011719 136.609375 179.898438 C 136.171875 179.890625 135.5 179.503906 135.386719 179.144531 C 135.273438 178.789062 135.585938 178.058594 135.9375 177.824219 C 137.464844 176.800781 139.074219 175.898438 140.855469 174.835938 C 139.117188 174.671875 137.683594 173.625 135.921875 174.699219 C 134.011719 175.859375 131.8125 176.308594 129.566406 176.382812 C 129.296875 176.390625 129.023438 176.382812 128.761719 176.34375 C 127.671875 176.175781 127.296875 175.28125 128.046875 174.457031 C 128.808594 173.621094 129.699219 172.902344 130.578125 172.089844 C 129.484375 171.6875 128.433594 171.25 127.34375 170.929688 C 127.0625 170.847656 126.589844 171.066406 126.339844 171.292969 C 123.699219 173.691406 120.753906 175.59375 117.394531 176.800781 C 116.398438 177.160156 115.324219 177.351562 114.269531 177.476562 C 113.890625 177.523438 113.257812 177.230469 113.113281 176.921875 C 112.941406 176.550781 113.035156 175.910156 113.257812 175.535156 C 113.59375 174.96875 114.074219 174.441406 114.609375 174.066406 C 116.71875 172.582031 118.871094 171.160156 121.007812 169.722656 C 121.273438 169.550781 121.566406 169.417969 121.878906 169.246094 Z M 150.332031 170.367188 C 149.90625 169.601562 149.515625 168.953125 149.175781 168.277344 C 147.75 165.445312 147.09375 162.40625 146.855469 159.273438 C 146.824219 158.878906 147.148438 158.269531 147.480469 158.09375 C 147.753906 157.949219 148.355469 158.21875 148.691406 158.464844 C 149.117188 158.777344 149.4375 159.234375 149.777344 159.648438 C 153.472656 164.234375 156.441406 169.210938 157.902344 174.996094 C 158.480469 174.996094 159.039062 174.996094 159.558594 174.996094 C 161.210938 168.78125 164.375 163.464844 168.550781 158.722656 C 168.882812 158.347656 169.597656 158.03125 170.0625 158.109375 C 170.816406 158.238281 170.703125 159.039062 170.632812 159.628906 C 170.210938 163.257812 169.40625 166.773438 167.382812 169.898438 C 167.304688 170.023438 167.265625 170.167969 167.179688 170.363281 C 168.425781 169.777344 169.585938 169.25 170.722656 168.679688 C 170.953125 168.5625 171.160156 168.296875 171.273438 168.054688 C 172.0625 166.386719 172.703125 164.644531 173.613281 163.054688 C 175.871094 159.117188 178.613281 155.566406 182.398438 152.960938 C 182.839844 152.65625 183.652344 152.523438 184.105469 152.726562 C 184.390625 152.855469 184.5 153.800781 184.386719 154.316406 C 183.316406 159.324219 180.621094 163.292969 176.539062 166.351562 C 176.160156 166.632812 175.800781 166.933594 175.480469 167.183594 C 176.882812 167.183594 178.222656 167.109375 179.550781 167.207031 C 180.863281 167.300781 181.972656 167.160156 182.667969 165.867188 C 182.816406 165.585938 183.132812 165.390625 183.394531 165.179688 C 187.574219 161.722656 192.289062 159.3125 197.574219 158.082031 C 198.488281 157.867188 199.496094 158.050781 200.5625 158.050781 C 200.5625 158.042969 200.589844 157.785156 200.628906 157.535156 C 200.898438 155.8125 201.125 154.085938 201.46875 152.378906 C 201.625 151.59375 201.757812 150.542969 202.839844 150.527344 C 204.007812 150.511719 204.058594 151.621094 204.28125 152.421875 C 205.105469 155.355469 205.339844 158.347656 204.953125 161.585938 C 205.785156 161.035156 206.464844 160.589844 207.03125 160.210938 C 206.445312 158.316406 205.707031 156.59375 205.421875 154.796875 C 205.140625 153.046875 205.183594 151.203125 205.347656 149.429688 C 205.445312 148.378906 206.453125 148.152344 207.222656 148.917969 C 207.929688 149.621094 208.660156 150.375 209.125 151.246094 C 210.074219 153.03125 210.855469 154.902344 211.726562 156.792969 C 212.351562 156.292969 213.113281 155.679688 213.933594 155.019531 C 213.535156 154.644531 213.214844 154.347656 212.902344 154.046875 C 209.527344 150.753906 207.039062 146.898438 205.605469 142.390625 C 205.375 141.65625 205.140625 140.886719 205.132812 140.136719 C 205.128906 139.605469 205.371094 138.875 205.761719 138.609375 C 206.074219 138.394531 206.898438 138.582031 207.273438 138.875 C 208.183594 139.601562 209.003906 140.457031 209.792969 141.328125 C 210.703125 142.335938 211.542969 143.40625 212.433594 144.480469 C 212.484375 144.355469 212.527344 144.300781 212.527344 144.246094 C 212.523438 143.945312 212.519531 143.644531 212.496094 143.339844 C 212.167969 139.0625 213.054688 135 214.707031 131.082031 C 215.007812 130.375 215.355469 129.671875 215.796875 129.050781 C 216.398438 128.203125 217.375 128.378906 217.738281 129.347656 C 217.847656 129.628906 217.90625 129.929688 217.957031 130.226562 C 218.507812 133.214844 218.710938 136.230469 218.371094 139.25 C 218.027344 142.335938 217.347656 145.339844 215.53125 147.957031 C 215.425781 148.109375 215.328125 148.34375 215.371094 148.5 C 215.730469 149.871094 216.125 151.234375 216.527344 152.671875 C 240.636719 131.179688 252.335938 94.667969 239.746094 59.621094 C 227.488281 25.472656 193.820312 0.613281 153.664062 2.855469 C 118.132812 4.835938 86.523438 28.820312 75.988281 64.679688 C 65.851562 99.164062 78.859375 133.421875 100.851562 152.628906 C 100.894531 152.578125 100.960938 152.535156 100.980469 152.476562 C 101.269531 151.515625 101.53125 150.542969 101.851562 149.589844 C 102.121094 148.785156 102.179688 148.105469 101.554688 147.363281 C 101.074219 146.792969 100.800781 146.019531 100.527344 145.300781 C 98.597656 140.25 98.578125 135.066406 99.621094 129.84375 C 99.71875 129.355469 100.226562 128.722656 100.660156 128.605469 C 100.988281 128.519531 101.691406 129.050781 101.917969 129.472656 C 104.167969 133.601562 105.152344 138.039062 105.015625 142.730469 C 105 143.296875 104.957031 143.863281 104.917969 144.59375 C 106.09375 143.203125 107.078125 141.96875 108.140625 140.804688 C 108.839844 140.042969 109.59375 139.300781 110.425781 138.695312 C 111.363281 138.015625 112.316406 138.5625 112.378906 139.730469 C 112.394531 139.992188 112.386719 140.28125 112.296875 140.523438 C 111.460938 142.78125 110.769531 145.105469 109.714844 147.253906 C 108.238281 150.257812 106.058594 152.78125 103.476562 155.054688 C 104.328125 155.730469 105.113281 156.355469 106 157.0625 C 106.539062 154.195312 107.632812 151.839844 109.382812 149.816406 C 109.921875 149.191406 110.414062 148.160156 111.453125 148.585938 C 112.429688 148.984375 112.367188 150.054688 112.410156 150.957031 C 112.558594 153.941406 111.769531 156.730469 110.601562 159.441406 C 110.488281 159.707031 110.476562 160.222656 110.640625 160.363281 C 111.175781 160.824219 111.8125 161.164062 112.554688 161.644531 C 112.5 161.265625 112.472656 161.105469 112.453125 160.941406 C 112.113281 157.753906 112.445312 154.636719 113.457031 151.609375 C 113.605469 151.160156 114.1875 150.578125 114.578125 150.574219 C 114.96875 150.566406 115.546875 151.128906 115.730469 151.574219 C 116.082031 152.429688 116.265625 153.371094 116.421875 154.292969 C 116.648438 155.628906 116.789062 156.980469 116.925781 158.039062 C 117.988281 158.039062 118.980469 157.832031 119.84375 158.078125 C 121.996094 158.695312 124.167969 159.351562 126.195312 160.285156 C 129.734375 161.914062 133.175781 163.757812 135.667969 166.917969 C 135.789062 167.070312 136.054688 167.179688 136.253906 167.179688 C 138.15625 167.199219 140.058594 167.191406 141.992188 167.191406 C 141.65625 166.925781 141.28125 166.609375 140.894531 166.320312 C 137.023438 163.414062 134.390625 159.671875 133.214844 154.957031 C 133.023438 154.183594 132.464844 153.25 133.382812 152.644531 C 134.261719 152.066406 134.984375 152.8125 135.617188 153.320312 C 140.453125 157.179688 143.90625 162.050781 146.109375 167.824219 C 146.21875 168.113281 146.371094 168.492188 146.609375 168.621094 C 147.796875 169.21875 149.011719 169.753906 150.332031 170.367188 Z M 133.503906 166.800781 C 130.75 163.917969 122.589844 159.894531 119.164062 159.734375 C 123.367188 163.394531 127.65625 166.40625 133.503906 166.800781 Z M 184.164062 166.660156 C 189.8125 166.390625 194.125 163.421875 198.074219 159.738281 C 192.886719 160.921875 188.222656 163.167969 184.164062 166.660156 Z M 214.894531 145.878906 C 216.996094 141.210938 217.273438 136.46875 216.496094 131.496094 C 214.253906 135 213.0625 144.195312 214.894531 145.878906 Z M 102.582031 145.882812 C 104.414062 144.175781 103.21875 135.011719 100.980469 131.496094 C 100.203125 136.46875 100.480469 141.210938 102.582031 145.882812 Z M 116.96875 159.777344 C 117.273438 161.246094 117.515625 162.449219 117.765625 163.648438 C 117.957031 164.5625 118.449219 165.1875 119.347656 165.558594 C 120.367188 165.980469 121.355469 166.492188 122.332031 167.011719 C 124.183594 167.992188 126.140625 167.589844 128.089844 167.535156 C 123.917969 165.761719 120.28125 163.257812 116.96875 159.777344 Z M 189.160156 167.523438 C 192.066406 167.960938 194.453125 167.34375 196.878906 166.203125 C 198.917969 165.238281 199.980469 163.929688 200.160156 161.769531 C 200.207031 161.1875 200.300781 160.609375 200.390625 159.902344 C 197.183594 163.261719 193.550781 165.761719 189.160156 167.523438 Z M 149.222656 171.84375 C 149.265625 171.765625 149.316406 171.6875 149.359375 171.609375 C 147.664062 170.9375 145.957031 170.285156 144.273438 169.582031 C 143.386719 169.210938 142.789062 169.390625 142.136719 170.132812 C 141.300781 171.089844 140.269531 171.875 139.210938 172.839844 C 140.386719 173.078125 141.398438 173.324219 142.421875 173.480469 C 143 173.566406 143.636719 173.644531 144.179688 173.488281 C 145.875 173 147.539062 172.398438 149.222656 171.84375 Z M 178.289062 172.816406 C 177.429688 172.066406 176.582031 171.5625 176.0625 170.828125 C 174.875 169.144531 173.488281 169.222656 171.871094 170.015625 C 170.640625 170.617188 169.378906 171.144531 167.996094 171.761719 C 169.953125 172.410156 171.652344 172.984375 173.363281 173.535156 C 173.640625 173.625 173.960938 173.675781 174.242188 173.625 C 175.523438 173.390625 176.796875 173.117188 178.289062 172.816406 Z M 110.453125 140.949219 C 106.898438 144.398438 104.003906 148.25 103.007812 153.25 C 106.683594 149.875 109.199219 145.792969 110.453125 140.949219 Z M 207.023438 140.957031 C 208.289062 145.792969 210.789062 149.875 214.460938 153.242188 C 213.460938 148.246094 210.578125 144.398438 207.023438 140.957031 Z M 143.761719 166.261719 C 141.65625 161.929688 138.875 158.113281 134.976562 154.871094 C 136.273438 160.121094 139.605469 163.511719 143.761719 166.261719 Z M 173.648438 166.40625 C 177.867188 163.503906 181.210938 160.121094 182.460938 155.019531 C 179.667969 156.839844 175.066406 162.761719 173.648438 166.40625 Z M 161.699219 173.394531 C 165.84375 170.414062 167.992188 166.300781 168.601562 161.316406 C 165.597656 164.9375 163.199219 168.90625 161.699219 173.394531 Z M 148.867188 161.324219 C 149.511719 166.304688 151.621094 170.445312 155.78125 173.390625 C 154.28125 168.90625 151.875 164.945312 148.867188 161.324219 Z M 90.132812 150.273438 C 92.515625 154.8125 96.449219 157.46875 101.015625 159.355469 C 97.941406 155.667969 94.285156 152.675781 90.132812 150.273438 Z M 216.445312 159.371094 C 221.015625 157.453125 224.988281 154.824219 227.324219 150.269531 C 223.183594 152.691406 219.515625 155.667969 216.445312 159.371094 Z M 166.640625 173.382812 C 170.070312 176.609375 174.25 177.941406 178.871094 178.148438 C 175.050781 175.925781 171.144531 173.910156 166.640625 173.382812 Z M 150.847656 173.386719 C 146.347656 173.894531 142.4375 175.917969 138.609375 178.148438 C 143.226562 177.9375 147.398438 176.609375 150.847656 173.386719 Z M 130.449219 174.539062 C 134.640625 174.148438 137.945312 172.070312 140.714844 169 C 136.644531 169.609375 133.511719 171.992188 130.449219 174.539062 Z M 176.769531 168.984375 C 179.652344 172.390625 184.148438 174.632812 187.21875 174.53125 C 183.980469 171.984375 180.835938 169.625 176.769531 168.984375 Z M 112.09375 167.335938 C 107.925781 166.09375 103.699219 165.6875 99.390625 166.492188 C 103.53125 168.074219 107.765625 168.410156 112.09375 167.335938 Z M 218.058594 166.488281 C 213.769531 165.71875 209.550781 166.066406 205.398438 167.34375 C 209.703125 168.410156 213.917969 168.070312 218.058594 166.488281 Z M 107.597656 161.355469 C 109.417969 157.96875 111.144531 154.820312 110.734375 150.757812 C 108.175781 153.9375 107.148438 157.296875 107.597656 161.355469 Z M 206.730469 150.941406 C 206.378906 153.917969 208.039062 159.207031 209.867188 161.085938 C 210.480469 157.792969 209.023438 152.992188 206.730469 150.941406 Z M 114.796875 154.09375 C 114.695312 154.097656 114.59375 154.101562 114.496094 154.101562 C 113.742188 157.410156 113.683594 160.691406 115 163.898438 C 115.101562 164.144531 115.554688 164.246094 115.847656 164.414062 C 115.976562 164.113281 116.257812 163.785156 116.214844 163.511719 C 116.058594 162.492188 115.734375 161.492188 115.589844 160.46875 C 115.285156 158.347656 115.054688 156.21875 114.796875 154.09375 Z M 202.953125 153.890625 C 202.792969 154.152344 202.71875 154.226562 202.707031 154.304688 C 202.207031 157.410156 201.699219 160.515625 201.234375 163.625 C 201.199219 163.863281 201.464844 164.332031 201.65625 164.367188 C 201.890625 164.414062 202.308594 164.191406 202.4375 163.964844 C 202.679688 163.539062 202.78125 163.03125 202.933594 162.554688 C 203.835938 159.730469 203.5625 156.910156 202.953125 153.890625 Z M 192.449219 170.046875 C 193.804688 171.96875 199.363281 175.199219 201.972656 175.582031 C 200.195312 173.347656 193.929688 169.707031 192.449219 170.046875 Z M 125.234375 170.046875 C 123.316406 169.808594 116.816406 173.65625 115.5 175.683594 C 119.191406 174.589844 122.300781 172.671875 125.234375 170.046875 Z M 203.203125 166.007812 C 205.292969 165.085938 207.15625 164.265625 209.089844 163.410156 C 208.613281 162.683594 208.277344 162.171875 207.890625 161.578125 C 206.273438 162.980469 203.980469 163.414062 203.203125 166.007812 Z M 114.300781 166.015625 C 113.425781 163.410156 111.140625 162.957031 109.515625 161.621094 C 109.113281 162.277344 108.808594 162.777344 108.410156 163.4375 C 110.347656 164.28125 112.191406 165.089844 114.300781 166.015625 Z M 135.523438 169.011719 C 135.507812 168.957031 135.492188 168.90625 135.476562 168.855469 C 133.066406 169.011719 130.652344 169.167969 128.238281 169.324219 C 129.464844 169.929688 130.714844 170.378906 131.972656 170.796875 C 132.171875 170.859375 132.464844 170.84375 132.640625 170.742188 C 133.613281 170.183594 134.5625 169.59375 135.523438 169.011719 Z M 182.019531 168.847656 C 182 168.90625 181.980469 168.964844 181.960938 169.023438 C 182.839844 169.550781 183.714844 170.085938 184.597656 170.605469 C 184.792969 170.714844 185.0625 170.878906 185.234375 170.820312 C 186.542969 170.410156 187.839844 169.945312 189.136719 169.5 C 189.117188 169.441406 189.097656 169.378906 189.078125 169.320312 C 186.726562 169.164062 184.375 169.007812 182.019531 168.847656 Z M 214.90625 156.378906 C 214.253906 156.894531 213.667969 157.53125 212.945312 157.90625 C 211.394531 158.703125 211.550781 160.027344 211.597656 161.582031 C 213.34375 160.105469 214.660156 158.601562 214.90625 156.378906 Z M 105.714844 161.441406 C 105.796875 161.402344 105.882812 161.367188 105.96875 161.332031 C 105.882812 160.539062 106.082031 159.511719 105.65625 159.011719 C 104.792969 157.992188 103.589844 157.257812 102.304688 156.226562 C 102.863281 158.628906 104.144531 160.136719 105.714844 161.441406 Z M 154.355469 174.808594 C 153.707031 174.394531 153.265625 174.117188 152.765625 173.796875 C 152.542969 174.117188 152.351562 174.402344 152.070312 174.808594 C 152.847656 174.808594 153.476562 174.808594 154.355469 174.808594 Z M 164.703125 173.800781 C 164.214844 174.121094 163.765625 174.410156 163.210938 174.773438 C 164.015625 174.773438 164.644531 174.773438 165.402344 174.773438 C 165.117188 174.378906 164.933594 174.121094 164.703125 173.800781 Z M 164.703125 173.800781 " fill-opacity="1" fill-rule="nonzero"/><g clip-path="url(#b6caf6c703)"><path fill="#99935f" d="M 12.730469 112.882812 C 14.136719 113.386719 15.441406 113.882812 16.769531 114.320312 C 18.097656 114.757812 19.15625 115.609375 20.175781 116.507812 C 20.898438 117.148438 21.136719 117.988281 20.796875 118.921875 C 20.578125 119.539062 20.34375 120.167969 20.03125 120.742188 C 18.890625 122.828125 16.988281 123.507812 14.714844 122.886719 C 11.753906 122.078125 10.847656 120.917969 10.332031 117.285156 C 10.222656 116.519531 10.316406 115.726562 10.316406 114.820312 C 9.804688 114.886719 9.273438 114.894531 8.769531 115.019531 C 6.792969 115.5 4.914062 116.164062 3.34375 117.5625 C 2.796875 118.039062 2.023438 118.292969 1.324219 118.5625 C 0.859375 118.738281 0.726562 118.554688 0.886719 118.074219 C 1.28125 116.855469 2.074219 115.785156 3.132812 115.054688 C 5.402344 113.464844 7.84375 112.363281 10.703125 112.496094 C 10.863281 112.503906 11.125 112.335938 11.183594 112.183594 C 12.679688 108.617188 14.960938 105.632812 17.609375 102.832031 C 20.628906 99.632812 24.265625 97.066406 28.292969 95.292969 C 31.792969 93.738281 35.328125 92.070312 39.085938 91.265625 C 44.859375 90.027344 50.6875 89.941406 56.535156 90.925781 C 62.625 91.945312 68.597656 93.449219 74.585938 94.882812 C 78.558594 95.832031 82.535156 96.816406 86.617188 97.050781 C 89.753906 97.238281 92.917969 97.1875 96.0625 97.085938 C 98.570312 97.007812 101.078125 96.800781 103.566406 96.460938 C 106.554688 96.058594 109.296875 94.8125 112.054688 93.6875 C 115.648438 92.230469 118.566406 89.933594 120.695312 86.671875 C 120.921875 86.324219 121.167969 85.980469 121.628906 86.175781 C 122.09375 86.367188 122.042969 86.820312 121.949219 87.191406 C 121.695312 88.300781 121.148438 89.328125 120.367188 90.160156 C 118.164062 92.484375 115.742188 94.492188 112.71875 95.695312 C 109.777344 96.875 106.882812 98.203125 103.710938 98.667969 C 101.65625 98.960938 99.582031 99.179688 97.503906 99.289062 C 94.441406 99.441406 91.371094 99.574219 88.300781 99.515625 C 83.765625 99.433594 79.355469 98.398438 74.957031 97.40625 C 70.042969 96.3125 65.15625 95.039062 60.226562 93.996094 C 56.179688 93.140625 52.09375 92.441406 47.910156 92.574219 C 44.96875 92.675781 41.945312 92.59375 39.144531 93.484375 C 33.390625 95.320312 27.511719 96.984375 22.582031 100.695312 C 18.679688 103.628906 15.332031 107.105469 13.234375 111.613281 C 13.042969 112.015625 12.90625 112.445312 12.730469 112.882812 Z M 12.175781 115.179688 C 11.847656 116.527344 12.101562 117.722656 12.480469 118.90625 C 12.984375 120.453125 14.4375 121.40625 16.15625 121.328125 C 17.644531 121.261719 18.519531 120.429688 18.929688 118.679688 C 18.9375 118.664062 18.957031 118.636719 18.949219 118.621094 C 18.855469 118.375 18.839844 118.039062 18.660156 117.898438 C 16.792969 116.367188 14.546875 115.71875 12.175781 115.179688 Z M 12.175781 115.179688 " fill-opacity="1" fill-rule="nonzero"/></g><g fill="#99935f" fill-opacity="1"><g transform="translate(119.920101, 106.585208)"><g><path d="M 33.171875 0 L 33.171875 -26.9375 L 21.203125 -6.09375 L 19.3125 -6.09375 L 7.34375 -26.9375 L 7.34375 0 L 4.109375 0 L 4.109375 -32.796875 L 7.4375 -32.796875 L 20.234375 -10.34375 L 33.125 -32.796875 L 36.40625 -32.796875 L 36.40625 0 Z M 33.171875 0 "/></g></g></g><g fill="#99935f" fill-opacity="1"><g transform="translate(160.446189, 106.585208)"><g><path d="M 29.984375 -32.796875 L 29.984375 0 L 26.796875 0 L 26.796875 -15.34375 L 7.34375 -15.34375 L 7.34375 0 L 4.109375 0 L 4.109375 -32.796875 L 7.34375 -32.796875 L 7.34375 -18.203125 L 26.796875 -18.203125 L 26.796875 -32.796875 Z M 29.984375 -32.796875 "/></g></g></g><g clip-path="url(#4f50bf95f4)"><path fill="#99935f" d="M 203.679688 86.277344 C 205.082031 86.78125 206.386719 87.277344 207.71875 87.714844 C 209.046875 88.152344 210.105469 89 211.125 89.902344 C 211.847656 90.542969 212.082031 91.382812 211.746094 92.316406 C 211.527344 92.929688 211.292969 93.5625 210.980469 94.132812 C 209.835938 96.21875 207.9375 96.902344 205.664062 96.277344 C 202.703125 95.472656 201.792969 94.308594 201.28125 90.675781 C 201.171875 89.910156 201.265625 89.121094 201.265625 88.210938 C 200.75 88.277344 200.222656 88.285156 199.714844 88.414062 C 197.738281 88.890625 195.863281 89.558594 194.289062 90.953125 C 193.742188 91.433594 192.96875 91.683594 192.273438 91.953125 C 191.808594 92.132812 191.675781 91.945312 191.835938 91.464844 C 192.230469 90.246094 193.019531 89.179688 194.082031 88.445312 C 196.351562 86.855469 198.792969 85.753906 201.652344 85.890625 C 201.8125 85.898438 202.070312 85.730469 202.132812 85.578125 C 203.628906 82.011719 205.910156 79.023438 208.558594 76.222656 C 211.578125 73.027344 215.210938 70.460938 219.242188 68.6875 C 222.742188 67.128906 226.273438 65.464844 230.035156 64.65625 C 235.804688 63.417969 241.636719 63.335938 247.480469 64.320312 C 253.574219 65.335938 259.546875 66.84375 265.535156 68.273438 C 269.503906 69.222656 273.484375 70.207031 277.566406 70.445312 C 280.703125 70.628906 283.867188 70.578125 287.011719 70.476562 C 289.519531 70.402344 292.027344 70.191406 294.515625 69.855469 C 297.503906 69.453125 300.246094 68.207031 303.003906 67.078125 C 306.597656 65.625 309.515625 63.328125 311.644531 60.0625 C 311.871094 59.71875 312.113281 59.375 312.578125 59.566406 C 313.039062 59.761719 312.988281 60.214844 312.898438 60.585938 C 312.644531 61.695312 312.097656 62.722656 311.316406 63.554688 C 309.109375 65.875 306.6875 67.886719 303.667969 69.089844 C 300.722656 70.265625 297.832031 71.597656 294.660156 72.058594 C 292.605469 72.355469 290.527344 72.574219 288.449219 72.683594 C 285.386719 72.832031 282.316406 72.96875 279.246094 72.910156 C 274.714844 72.824219 270.304688 71.789062 265.90625 70.796875 C 260.992188 69.703125 256.105469 68.433594 251.175781 67.390625 C 247.128906 66.53125 243.039062 65.835938 238.859375 65.96875 C 235.914062 66.070312 232.894531 65.984375 230.09375 66.878906 C 224.339844 68.710938 218.460938 70.375 213.53125 74.085938 C 209.625 77.023438 206.277344 80.496094 204.183594 85.007812 C 203.992188 85.410156 203.855469 85.839844 203.679688 86.277344 Z M 203.125 88.574219 C 202.796875 89.917969 203.046875 91.113281 203.425781 92.300781 C 203.929688 93.847656 205.386719 94.796875 207.101562 94.722656 C 208.59375 94.65625 209.464844 93.820312 209.878906 92.074219 C 209.886719 92.054688 209.902344 92.03125 209.894531 92.011719 C 209.804688 91.769531 209.785156 91.433594 209.609375 91.289062 C 207.742188 89.757812 205.496094 89.109375 203.125 88.574219 Z M 203.125 88.574219 " fill-opacity="1" fill-rule="nonzero"/></g><g fill="#c98113" fill-opacity="1"><g transform="translate(121.596786, 37.268845)"><g><path d="M 12.1875 -5.859375 L 7.421875 -15.765625 L 6.703125 -5.984375 L 6.015625 -5.640625 L -2.0625 -11.203125 L 2.703125 -1.296875 L 1.5 -0.71875 L -4.296875 -12.765625 L -3.0625 -13.359375 L 5.609375 -7.375 L 6.375 -17.890625 L 7.578125 -18.484375 L 13.375 -6.4375 Z M 12.1875 -5.859375 "/></g></g></g><g fill="#c98113" fill-opacity="1"><g transform="translate(137.390777, 29.959824)"><g><path d="M 6.9375 -1.296875 C 6.03125 -1.117188 5.160156 -1.140625 4.328125 -1.359375 C 3.492188 -1.578125 2.742188 -1.941406 2.078125 -2.453125 C 1.410156 -2.960938 0.847656 -3.585938 0.390625 -4.328125 C -0.0546875 -5.078125 -0.363281 -5.875 -0.53125 -6.71875 C -0.707031 -7.582031 -0.71875 -8.445312 -0.5625 -9.3125 C -0.414062 -10.175781 -0.128906 -10.96875 0.296875 -11.6875 C 0.734375 -12.414062 1.289062 -13.039062 1.96875 -13.5625 C 2.644531 -14.082031 3.414062 -14.425781 4.28125 -14.59375 C 5.1875 -14.78125 6.054688 -14.753906 6.890625 -14.515625 C 7.722656 -14.285156 8.46875 -13.910156 9.125 -13.390625 C 9.789062 -12.867188 10.351562 -12.238281 10.8125 -11.5 C 11.269531 -10.757812 11.582031 -9.984375 11.75 -9.171875 C 11.925781 -8.285156 11.9375 -7.410156 11.78125 -6.546875 C 11.632812 -5.679688 11.347656 -4.890625 10.921875 -4.171875 C 10.492188 -3.460938 9.9375 -2.847656 9.25 -2.328125 C 8.570312 -1.816406 7.800781 -1.472656 6.9375 -1.296875 Z M 0.75 -6.984375 C 0.882812 -6.265625 1.132812 -5.597656 1.5 -4.984375 C 1.875 -4.378906 2.328125 -3.859375 2.859375 -3.421875 C 3.398438 -2.992188 3.992188 -2.691406 4.640625 -2.515625 C 5.296875 -2.335938 5.984375 -2.320312 6.703125 -2.46875 C 7.441406 -2.613281 8.078125 -2.90625 8.609375 -3.34375 C 9.148438 -3.789062 9.578125 -4.3125 9.890625 -4.90625 C 10.210938 -5.507812 10.421875 -6.160156 10.515625 -6.859375 C 10.617188 -7.566406 10.601562 -8.257812 10.46875 -8.9375 C 10.320312 -9.644531 10.0625 -10.300781 9.6875 -10.90625 C 9.3125 -11.519531 8.859375 -12.035156 8.328125 -12.453125 C 7.796875 -12.867188 7.207031 -13.164062 6.5625 -13.34375 C 5.914062 -13.53125 5.234375 -13.550781 4.515625 -13.40625 C 3.785156 -13.257812 3.144531 -12.96875 2.59375 -12.53125 C 2.050781 -12.09375 1.617188 -11.570312 1.296875 -10.96875 C 0.984375 -10.375 0.78125 -9.726562 0.6875 -9.03125 C 0.59375 -8.332031 0.613281 -7.648438 0.75 -6.984375 Z M 0.75 -6.984375 "/></g></g></g><g fill="#c98113" fill-opacity="1"><g transform="translate(152.231115, 27.070966)"><g><path d="M 3.40625 -10.796875 L 3 0.109375 L 1.671875 0.0625 L 2.171875 -13.296875 L 3.1875 -13.265625 L 11.609375 -1.796875 L 12.03125 -12.890625 L 13.34375 -12.84375 L 12.84375 0.484375 L 11.703125 0.4375 Z M 3.40625 -10.796875 "/></g></g></g><g fill="#c98113" fill-opacity="1"><g transform="translate(167.730087, 27.805111)"><g><path d="M 15.359375 -9.609375 L 11.765625 3.28125 L 10.515625 2.9375 L 12.1875 -3.078125 L 4.5625 -5.203125 L 2.890625 0.8125 L 1.609375 0.453125 L 5.203125 -12.4375 L 6.484375 -12.078125 L 4.875 -6.34375 L 12.5 -4.21875 L 14.109375 -9.953125 Z M 15.359375 -9.609375 "/></g></g></g><g fill="#c98113" fill-opacity="1"><g transform="translate(182.092485, 32.057737)"><g><path d="M 9.984375 3.921875 L 9.4375 4.953125 L 1.484375 0.78125 L 7.703125 -11.0625 L 15.5 -6.96875 L 14.953125 -5.921875 L 8.328125 -9.40625 L 6.09375 -5.140625 L 11.875 -2.09375 L 11.359375 -1.109375 L 5.578125 -4.15625 L 3.203125 0.359375 Z M 9.984375 3.921875 "/></g></g></g><g fill="#c98113" fill-opacity="1"><g transform="translate(53.815875, 168.665637)"><g><path d="M 1.078125 0.921875 L 8.390625 -7.671875 L 12.03125 -4.578125 C 12.394531 -4.273438 12.664062 -3.90625 12.84375 -3.46875 C 13.019531 -3.039062 13.109375 -2.609375 13.109375 -2.171875 C 13.117188 -1.734375 13.050781 -1.296875 12.90625 -0.859375 C 12.757812 -0.429688 12.546875 -0.0507812 12.265625 0.28125 C 11.992188 0.59375 11.6875 0.851562 11.34375 1.0625 C 11.007812 1.269531 10.660156 1.414062 10.296875 1.5 C 9.941406 1.582031 9.578125 1.601562 9.203125 1.5625 C 8.835938 1.519531 8.488281 1.398438 8.15625 1.203125 L 7.4375 6.328125 L 6.484375 5.515625 L 7.15625 0.625 L 4.609375 -1.53125 L 1.921875 1.640625 Z M 5.265625 -2.28125 L 8.078125 0.109375 C 8.328125 0.316406 8.597656 0.453125 8.890625 0.515625 C 9.179688 0.585938 9.484375 0.59375 9.796875 0.53125 C 10.109375 0.46875 10.398438 0.351562 10.671875 0.1875 C 10.953125 0.0195312 11.203125 -0.1875 11.421875 -0.4375 C 11.640625 -0.695312 11.800781 -0.984375 11.90625 -1.296875 C 12.019531 -1.617188 12.070312 -1.9375 12.0625 -2.25 C 12.0625 -2.5625 12 -2.859375 11.875 -3.140625 C 11.75 -3.429688 11.570312 -3.675781 11.34375 -3.875 L 8.59375 -6.203125 Z M 5.265625 -2.28125 "/></g></g></g><g fill="#c98113" fill-opacity="1"><g transform="translate(63.574371, 176.824801)"><g><path d="M 7.875 4.46875 L 7.296875 5.265625 L 1.15625 0.828125 L 7.75 -8.328125 L 13.765625 -3.984375 L 13.1875 -3.1875 L 8.0625 -6.875 L 5.6875 -3.578125 L 10.171875 -0.359375 L 9.625 0.40625 L 5.140625 -2.8125 L 2.625 0.6875 Z M 7.875 4.46875 "/></g></g></g><g fill="#c98113" fill-opacity="1"><g transform="translate(73.370869, 183.769975)"><g><path d="M 11.609375 -3.6875 C 11.523438 -4.15625 11.3125 -4.617188 10.96875 -5.078125 C 10.632812 -5.546875 10.175781 -5.953125 9.59375 -6.296875 C 8.75 -6.816406 8.03125 -7.035156 7.4375 -6.953125 C 6.851562 -6.867188 6.394531 -6.550781 6.0625 -6 C 5.882812 -5.707031 5.789062 -5.4375 5.78125 -5.1875 C 5.78125 -4.945312 5.84375 -4.691406 5.96875 -4.421875 C 6.101562 -4.148438 6.3125 -3.859375 6.59375 -3.546875 C 6.875 -3.242188 7.222656 -2.90625 7.640625 -2.53125 C 8.078125 -2.101562 8.457031 -1.695312 8.78125 -1.3125 C 9.113281 -0.925781 9.359375 -0.539062 9.515625 -0.15625 C 9.679688 0.21875 9.753906 0.597656 9.734375 0.984375 C 9.722656 1.367188 9.582031 1.773438 9.3125 2.203125 C 9.039062 2.648438 8.71875 2.984375 8.34375 3.203125 C 7.976562 3.429688 7.578125 3.554688 7.140625 3.578125 C 6.703125 3.609375 6.238281 3.546875 5.75 3.390625 C 5.257812 3.234375 4.757812 3 4.25 2.6875 C 2.757812 1.789062 1.753906 0.539062 1.234375 -1.0625 L 2.1875 -1.546875 C 2.238281 -1.253906 2.332031 -0.953125 2.46875 -0.640625 C 2.613281 -0.335938 2.796875 -0.0351562 3.015625 0.265625 C 3.234375 0.566406 3.492188 0.851562 3.796875 1.125 C 4.097656 1.394531 4.429688 1.640625 4.796875 1.859375 C 5.566406 2.328125 6.25 2.550781 6.84375 2.53125 C 7.4375 2.519531 7.90625 2.234375 8.25 1.671875 C 8.425781 1.367188 8.515625 1.082031 8.515625 0.8125 C 8.523438 0.539062 8.453125 0.257812 8.296875 -0.03125 C 8.140625 -0.332031 7.914062 -0.644531 7.625 -0.96875 C 7.332031 -1.300781 6.976562 -1.671875 6.5625 -2.078125 C 6.125 -2.503906 5.753906 -2.894531 5.453125 -3.25 C 5.148438 -3.613281 4.921875 -3.96875 4.765625 -4.3125 C 4.617188 -4.65625 4.5625 -5 4.59375 -5.34375 C 4.625 -5.695312 4.757812 -6.066406 5 -6.453125 C 5.269531 -6.898438 5.597656 -7.25 5.984375 -7.5 C 6.367188 -7.75 6.785156 -7.894531 7.234375 -7.9375 C 7.679688 -7.976562 8.144531 -7.929688 8.625 -7.796875 C 9.113281 -7.660156 9.613281 -7.441406 10.125 -7.140625 C 10.769531 -6.742188 11.28125 -6.296875 11.65625 -5.796875 C 12.039062 -5.304688 12.328125 -4.757812 12.515625 -4.15625 Z M 11.609375 -3.6875 "/></g></g></g><g fill="#c98113" fill-opacity="1"><g transform="translate(83.651813, 189.914346)"><g><path d="M 13.046875 -4.9375 L 9.46875 -6.75 L 4.828125 2.4375 L 3.828125 1.9375 L 8.46875 -7.25 L 4.875 -9.0625 L 5.328125 -9.9375 L 13.5 -5.8125 Z M 13.046875 -4.9375 "/></g></g></g><g fill="#c98113" fill-opacity="1"><g transform="translate(94.434459, 195.280236)"><g><path d="M 8.796875 -8.609375 L 9.65625 -8.25 L 9.75 3.96875 L 8.671875 3.53125 L 8.640625 -0.296875 L 3.953125 -2.203125 L 1.28125 0.515625 L 0.171875 0.078125 Z M 8.734375 -1.203125 L 8.75 -7.21875 L 4.5 -2.921875 Z M 8.734375 -1.203125 "/></g></g></g><g fill="#c98113" fill-opacity="1"><g transform="translate(106.630153, 200.153397)"><g><path d="M 5.984375 0.875 C 6.671875 1.082031 7.273438 1.125 7.796875 1 C 8.328125 0.875 8.789062 0.644531 9.1875 0.3125 C 9.59375 -0.0195312 9.929688 -0.441406 10.203125 -0.953125 C 10.472656 -1.460938 10.691406 -1.988281 10.859375 -2.53125 L 12.515625 -7.96875 L 13.59375 -7.640625 L 11.9375 -2.203125 C 11.707031 -1.484375 11.410156 -0.816406 11.046875 -0.203125 C 10.679688 0.398438 10.242188 0.894531 9.734375 1.28125 C 9.234375 1.664062 8.648438 1.914062 7.984375 2.03125 C 7.316406 2.15625 6.5625 2.085938 5.71875 1.828125 C 4.875 1.566406 4.207031 1.191406 3.71875 0.703125 C 3.226562 0.210938 2.878906 -0.335938 2.671875 -0.953125 C 2.472656 -1.566406 2.394531 -2.21875 2.4375 -2.90625 C 2.488281 -3.601562 2.625 -4.296875 2.84375 -4.984375 L 4.5 -10.421875 L 5.546875 -10.09375 L 3.890625 -4.65625 C 3.710938 -4.09375 3.59375 -3.523438 3.53125 -2.953125 C 3.476562 -2.378906 3.523438 -1.84375 3.671875 -1.34375 C 3.816406 -0.851562 4.070312 -0.410156 4.4375 -0.015625 C 4.800781 0.367188 5.316406 0.664062 5.984375 0.875 Z M 5.984375 0.875 "/></g></g></g><g fill="#c98113" fill-opacity="1"><g transform="translate(120.423478, 204.219717)"><g><path d="M 1.390625 0.296875 L 3.71875 -10.734375 L 8.375 -9.75 C 8.84375 -9.65625 9.257812 -9.460938 9.625 -9.171875 C 9.988281 -8.878906 10.28125 -8.539062 10.5 -8.15625 C 10.726562 -7.78125 10.875 -7.363281 10.9375 -6.90625 C 11.007812 -6.457031 11 -6.019531 10.90625 -5.59375 C 10.820312 -5.195312 10.679688 -4.828125 10.484375 -4.484375 C 10.285156 -4.140625 10.046875 -3.84375 9.765625 -3.59375 C 9.492188 -3.34375 9.1875 -3.148438 8.84375 -3.015625 C 8.507812 -2.878906 8.144531 -2.8125 7.75 -2.8125 L 9.5625 2.015625 L 8.328125 1.765625 L 6.59375 -2.859375 L 3.34375 -3.546875 L 2.484375 0.515625 Z M 3.546875 -4.53125 L 7.140625 -3.765625 C 7.460938 -3.691406 7.769531 -3.695312 8.0625 -3.78125 C 8.363281 -3.863281 8.628906 -4.003906 8.859375 -4.203125 C 9.097656 -4.398438 9.300781 -4.640625 9.46875 -4.921875 C 9.632812 -5.203125 9.75 -5.503906 9.8125 -5.828125 C 9.882812 -6.171875 9.894531 -6.503906 9.84375 -6.828125 C 9.789062 -7.160156 9.6875 -7.460938 9.53125 -7.734375 C 9.382812 -8.003906 9.1875 -8.234375 8.9375 -8.421875 C 8.6875 -8.617188 8.414062 -8.75 8.125 -8.8125 L 4.609375 -9.5625 Z M 3.546875 -4.53125 "/></g></g></g><g fill="#c98113" fill-opacity="1"><g transform="translate(132.905997, 206.762801)"><g><path d="M 6.265625 -10.578125 L 7.1875 -10.46875 L 10.453125 1.296875 L 9.28125 1.15625 L 8.265625 -2.53125 L 3.25 -3.15625 L 1.359375 0.171875 L 0.1875 0.015625 Z M 8.125 -3.4375 L 6.5625 -9.234375 L 3.578125 -4 Z M 8.125 -3.4375 "/></g></g></g><g fill="#c98113" fill-opacity="1"><g transform="translate(145.952233, 208.314313)"><g><path d="M 2.84375 -9.140625 L 2.53125 0.078125 L 1.421875 0.046875 L 1.796875 -11.234375 L 2.640625 -11.203125 L 9.796875 -1.5625 L 10.109375 -10.9375 L 11.234375 -10.90625 L 10.859375 0.359375 L 9.890625 0.328125 Z M 2.84375 -9.140625 "/></g></g></g><g fill="#c98113" fill-opacity="1"><g transform="translate(160.591256, 208.644928)"><g><path d="M 8.859375 -10.78125 L 4.859375 -10.578125 L 5.40625 -0.296875 L 4.296875 -0.234375 L 3.75 -10.515625 L -0.28125 -10.296875 L -0.34375 -11.28125 L 8.796875 -11.765625 Z M 8.859375 -10.78125 "/></g></g></g><g fill="#c98113" fill-opacity="1"><g transform="translate(172.49312, 207.856974)"><g/></g></g><g fill="#c98113" fill-opacity="1"><g transform="translate(178.761498, 207.178343)"><g><path d="M 8.9375 -1.578125 L 7.40625 -2.703125 C 7.0625 -2.148438 6.628906 -1.691406 6.109375 -1.328125 C 5.585938 -0.960938 4.992188 -0.722656 4.328125 -0.609375 C 3.828125 -0.515625 3.347656 -0.5 2.890625 -0.5625 C 2.429688 -0.632812 2.019531 -0.773438 1.65625 -0.984375 C 1.289062 -1.203125 0.976562 -1.476562 0.71875 -1.8125 C 0.46875 -2.144531 0.304688 -2.535156 0.234375 -2.984375 C 0.160156 -3.367188 0.15625 -3.726562 0.21875 -4.0625 C 0.289062 -4.40625 0.410156 -4.726562 0.578125 -5.03125 C 0.753906 -5.332031 0.960938 -5.617188 1.203125 -5.890625 C 1.453125 -6.171875 1.710938 -6.445312 1.984375 -6.71875 C 1.648438 -6.957031 1.363281 -7.179688 1.125 -7.390625 C 0.894531 -7.609375 0.703125 -7.804688 0.546875 -7.984375 C 0.390625 -8.171875 0.269531 -8.351562 0.1875 -8.53125 C 0.101562 -8.707031 0.0390625 -8.894531 0 -9.09375 C -0.0625 -9.4375 -0.0507812 -9.765625 0.03125 -10.078125 C 0.125 -10.398438 0.273438 -10.691406 0.484375 -10.953125 C 0.703125 -11.222656 0.96875 -11.453125 1.28125 -11.640625 C 1.601562 -11.828125 1.96875 -11.953125 2.375 -12.015625 C 2.726562 -12.078125 3.066406 -12.082031 3.390625 -12.03125 C 3.722656 -11.988281 4.023438 -11.890625 4.296875 -11.734375 C 4.566406 -11.585938 4.796875 -11.390625 4.984375 -11.140625 C 5.171875 -10.890625 5.289062 -10.609375 5.34375 -10.296875 C 5.40625 -9.960938 5.390625 -9.648438 5.296875 -9.359375 C 5.210938 -9.066406 5.082031 -8.785156 4.90625 -8.515625 C 4.726562 -8.242188 4.507812 -7.972656 4.25 -7.703125 C 4 -7.429688 3.726562 -7.15625 3.4375 -6.875 L 7.125 -4.15625 C 7.269531 -4.601562 7.363281 -5.066406 7.40625 -5.546875 C 7.445312 -6.023438 7.421875 -6.519531 7.328125 -7.03125 L 8.234375 -7.1875 C 8.335938 -6.539062 8.351562 -5.914062 8.28125 -5.3125 C 8.21875 -4.71875 8.085938 -4.15625 7.890625 -3.625 L 10.34375 -1.828125 Z M 4.28125 -1.484375 C 4.8125 -1.578125 5.273438 -1.773438 5.671875 -2.078125 C 6.078125 -2.378906 6.425781 -2.757812 6.71875 -3.21875 L 2.703125 -6.171875 C 2.222656 -5.679688 1.835938 -5.191406 1.546875 -4.703125 C 1.253906 -4.222656 1.160156 -3.703125 1.265625 -3.140625 C 1.328125 -2.804688 1.457031 -2.515625 1.65625 -2.265625 C 1.851562 -2.023438 2.09375 -1.835938 2.375 -1.703125 C 2.65625 -1.566406 2.957031 -1.476562 3.28125 -1.4375 C 3.613281 -1.40625 3.945312 -1.421875 4.28125 -1.484375 Z M 0.984375 -9.296875 C 1.003906 -9.160156 1.039062 -9.035156 1.09375 -8.921875 C 1.15625 -8.804688 1.253906 -8.675781 1.390625 -8.53125 C 1.523438 -8.382812 1.695312 -8.222656 1.90625 -8.046875 C 2.125 -7.867188 2.394531 -7.648438 2.71875 -7.390625 C 3.25 -7.910156 3.671875 -8.375 3.984375 -8.78125 C 4.304688 -9.195312 4.429688 -9.628906 4.359375 -10.078125 C 4.285156 -10.472656 4.070312 -10.773438 3.71875 -10.984375 C 3.375 -11.203125 2.972656 -11.269531 2.515625 -11.1875 C 2.242188 -11.144531 2.007812 -11.0625 1.8125 -10.9375 C 1.613281 -10.8125 1.441406 -10.660156 1.296875 -10.484375 C 1.160156 -10.316406 1.0625 -10.128906 1 -9.921875 C 0.945312 -9.722656 0.941406 -9.515625 0.984375 -9.296875 Z M 0.984375 -9.296875 "/></g></g></g><g fill="#c98113" fill-opacity="1"><g transform="translate(191.38229, 204.768908)"><g/></g></g><g fill="#c98113" fill-opacity="1"><g transform="translate(197.523964, 203.319519)"><g><path d="M -1.0625 -5.671875 C -1.257812 -6.316406 -1.34375 -6.992188 -1.3125 -7.703125 C -1.289062 -8.410156 -1.140625 -9.082031 -0.859375 -9.71875 C -0.578125 -10.363281 -0.171875 -10.941406 0.359375 -11.453125 C 0.898438 -11.972656 1.578125 -12.359375 2.390625 -12.609375 C 3.347656 -12.910156 4.234375 -12.953125 5.046875 -12.734375 C 5.867188 -12.515625 6.550781 -12.101562 7.09375 -11.5 L 6.421875 -10.734375 C 6.140625 -11.035156 5.835938 -11.265625 5.515625 -11.421875 C 5.191406 -11.585938 4.863281 -11.703125 4.53125 -11.765625 C 4.207031 -11.835938 3.882812 -11.859375 3.5625 -11.828125 C 3.238281 -11.796875 2.925781 -11.734375 2.625 -11.640625 C 1.976562 -11.441406 1.445312 -11.132812 1.03125 -10.71875 C 0.613281 -10.300781 0.300781 -9.828125 0.09375 -9.296875 C -0.113281 -8.765625 -0.21875 -8.207031 -0.21875 -7.625 C -0.226562 -7.039062 -0.144531 -6.476562 0.03125 -5.9375 C 0.207031 -5.332031 0.484375 -4.785156 0.859375 -4.296875 C 1.242188 -3.816406 1.679688 -3.425781 2.171875 -3.125 C 2.660156 -2.820312 3.1875 -2.617188 3.75 -2.515625 C 4.3125 -2.421875 4.882812 -2.460938 5.46875 -2.640625 C 5.769531 -2.734375 6.066406 -2.867188 6.359375 -3.046875 C 6.648438 -3.222656 6.921875 -3.441406 7.171875 -3.703125 C 7.421875 -3.960938 7.628906 -4.253906 7.796875 -4.578125 C 7.972656 -4.910156 8.097656 -5.273438 8.171875 -5.671875 L 9.1875 -5.5 C 9.144531 -5.039062 9.015625 -4.609375 8.796875 -4.203125 C 8.585938 -3.796875 8.316406 -3.425781 7.984375 -3.09375 C 7.660156 -2.757812 7.300781 -2.46875 6.90625 -2.21875 C 6.519531 -1.976562 6.117188 -1.796875 5.703125 -1.671875 C 4.960938 -1.441406 4.234375 -1.390625 3.515625 -1.515625 C 2.804688 -1.648438 2.144531 -1.910156 1.53125 -2.296875 C 0.925781 -2.691406 0.398438 -3.179688 -0.046875 -3.765625 C -0.503906 -4.347656 -0.84375 -4.984375 -1.0625 -5.671875 Z M -1.0625 -5.671875 "/></g></g></g><g fill="#c98113" fill-opacity="1"><g transform="translate(210.194404, 199.296606)"><g><path d="M 5.53125 -2.1875 C 4.8125 -1.894531 4.085938 -1.773438 3.359375 -1.828125 C 2.628906 -1.878906 1.945312 -2.0625 1.3125 -2.375 C 0.6875 -2.695312 0.128906 -3.125 -0.359375 -3.65625 C -0.859375 -4.195312 -1.25 -4.800781 -1.53125 -5.46875 C -1.8125 -6.15625 -1.957031 -6.867188 -1.96875 -7.609375 C -1.976562 -8.347656 -1.863281 -9.054688 -1.625 -9.734375 C -1.394531 -10.410156 -1.039062 -11.015625 -0.5625 -11.546875 C -0.0820312 -12.078125 0.5 -12.488281 1.1875 -12.78125 C 1.914062 -13.082031 2.644531 -13.203125 3.375 -13.140625 C 4.101562 -13.078125 4.78125 -12.882812 5.40625 -12.5625 C 6.039062 -12.238281 6.609375 -11.804688 7.109375 -11.265625 C 7.609375 -10.734375 7.992188 -10.140625 8.265625 -9.484375 C 8.546875 -8.785156 8.691406 -8.066406 8.703125 -7.328125 C 8.722656 -6.597656 8.613281 -5.898438 8.375 -5.234375 C 8.132812 -4.566406 7.773438 -3.960938 7.296875 -3.421875 C 6.828125 -2.890625 6.238281 -2.476562 5.53125 -2.1875 Z M -0.515625 -5.890625 C -0.273438 -5.316406 0.0390625 -4.804688 0.4375 -4.359375 C 0.84375 -3.910156 1.300781 -3.554688 1.8125 -3.296875 C 2.320312 -3.035156 2.863281 -2.878906 3.4375 -2.828125 C 4.007812 -2.785156 4.582031 -2.882812 5.15625 -3.125 C 5.75 -3.363281 6.226562 -3.710938 6.59375 -4.171875 C 6.96875 -4.628906 7.238281 -5.128906 7.40625 -5.671875 C 7.570312 -6.210938 7.640625 -6.78125 7.609375 -7.375 C 7.578125 -7.96875 7.445312 -8.535156 7.21875 -9.078125 C 6.988281 -9.640625 6.664062 -10.144531 6.25 -10.59375 C 5.84375 -11.039062 5.382812 -11.394531 4.875 -11.65625 C 4.375 -11.914062 3.835938 -12.066406 3.265625 -12.109375 C 2.703125 -12.160156 2.132812 -12.066406 1.5625 -11.828125 C 0.976562 -11.585938 0.5 -11.242188 0.125 -10.796875 C -0.25 -10.347656 -0.515625 -9.847656 -0.671875 -9.296875 C -0.835938 -8.753906 -0.90625 -8.1875 -0.875 -7.59375 C -0.851562 -7 -0.734375 -6.429688 -0.515625 -5.890625 Z M -0.515625 -5.890625 "/></g></g></g><g fill="#c98113" fill-opacity="1"><g transform="translate(223.353744, 193.707168)"><g><path d="M 1.265625 -0.65625 L -3.90625 -10.6875 L 2.65625 -14.0625 L 3.109375 -13.1875 L -2.46875 -10.3125 L -0.5625 -6.625 L 4.140625 -9.046875 L 4.5625 -8.234375 L -0.140625 -5.8125 L 2.25 -1.15625 Z M 1.265625 -0.65625 "/></g></g></g><g fill="#c98113" fill-opacity="1"><g transform="translate(233.69643, 188.279787)"><g><path d="M 1.203125 -0.75 L -4.703125 -10.359375 L 1.59375 -14.234375 L 2.109375 -13.390625 L -3.234375 -10.09375 L -1.078125 -6.578125 L 3.4375 -9.359375 L 3.921875 -8.5625 L -0.59375 -5.78125 L 2.15625 -1.328125 Z M 1.203125 -0.75 "/></g></g></g><g fill="#c98113" fill-opacity="1"><g transform="translate(243.603822, 182.08263)"><g><path d="M 6.703125 -6.09375 L 7.28125 -5.296875 L 1.15625 -0.84375 L -5.484375 -9.96875 L 0.515625 -14.328125 L 1.09375 -13.53125 L -4.015625 -9.8125 L -1.625 -6.53125 L 2.828125 -9.78125 L 3.390625 -9.015625 L -1.0625 -5.765625 L 1.46875 -2.28125 Z M 6.703125 -6.09375 "/></g></g></g><g fill="#c98113" fill-opacity="1"><g transform="translate(253.261043, 174.944449)"><g><path d="M 6.203125 -6.59375 L 6.84375 -5.84375 L 1.078125 -0.921875 L -6.25 -9.5 L -0.609375 -14.328125 L 0.03125 -13.578125 L -4.765625 -9.46875 L -2.125 -6.375 L 2.0625 -9.96875 L 2.671875 -9.265625 L -1.515625 -5.671875 L 1.28125 -2.390625 Z M 6.203125 -6.59375 "/></g></g></g></svg>